<?xml version="1.0" standalone="no"?>
<!DOCTYPE svg PUBLIC "-//W3C//DTD SVG 20010904//EN"
 "http://www.w3.org/TR/2001/REC-SVG-20010904/DTD/svg10.dtd">
<svg version="1.0" xmlns="http://www.w3.org/2000/svg"
 width="351.000000pt" height="351.000000pt" viewBox="0 0 351.000000 351.000000"
 preserveAspectRatio="xMidYMid meet">
<metadata>
Created by potrace 1.11, written by Peter Selinger 2001-2013
</metadata>
<g transform="translate(0.000000,351.000000) scale(0.100000,-0.100000)"
fill="#000000" stroke="none">
<path d="M804 3395 c3 -8 9 -22 12 -30 4 -10 0 -15 -10 -15 -12 0 -14 -9 -11
-39 2 -29 -1 -41 -12 -45 -12 -5 -14 -15 -10 -41 3 -19 2 -35 -4 -35 -8 0 -7
-38 5 -113 2 -16 12 -37 21 -47 11 -12 12 -19 5 -22 -7 -2 -4 -13 9 -30 12
-14 21 -31 21 -37 0 -5 11 -22 25 -37 14 -15 25 -31 25 -35 0 -4 -27 -11 -60
-15 -33 -4 -63 -11 -66 -15 -3 -5 -16 -9 -28 -9 -13 0 -29 -7 -36 -15 -7 -8
-21 -15 -31 -15 -19 0 -48 -14 -122 -59 -32 -20 -35 -25 -22 -35 17 -13 11
-24 -32 -55 -18 -12 -33 -28 -33 -34 0 -17 50 -63 78 -71 13 -5 21 -10 18 -14
-5 -5 7 -14 79 -59 11 -7 27 -15 35 -19 8 -3 25 -11 37 -16 20 -10 156 -3 176
9 4 2 -2 22 -15 44 -13 24 -18 42 -12 47 25 22 233 77 291 77 62 0 63 0 89 41
28 44 86 85 149 104 53 17 108 45 158 81 26 19 52 29 75 29 19 0 81 15 138 33
104 32 104 32 104 65 0 17 -4 32 -10 32 -5 0 -10 8 -10 19 0 10 -11 26 -25 35
-14 9 -25 21 -25 26 0 15 -44 54 -82 72 -32 15 -38 15 -48 2 -7 -7 -19 -14
-26 -14 -8 0 -19 -9 -26 -20 -7 -11 -21 -20 -31 -20 -11 0 -21 -9 -24 -20 -3
-11 -10 -20 -15 -20 -15 0 -68 -57 -68 -73 0 -8 -11 -22 -25 -31 -14 -9 -25
-23 -25 -31 0 -8 -5 -15 -10 -15 -7 0 -7 7 0 21 14 26 3 124 -16 140 -8 6 -14
26 -14 44 0 20 -6 35 -15 39 -8 3 -15 15 -15 26 0 28 -35 60 -65 60 -17 0 -29
9 -40 30 -9 17 -21 30 -29 30 -7 0 -21 9 -31 20 -10 12 -25 18 -32 16 -7 -3
-15 -1 -19 5 -3 6 -16 9 -29 7 -12 -1 -30 4 -39 11 -15 13 -82 23 -143 22 -12
0 -37 6 -57 14 -45 19 -60 19 -52 0z m76 -91 c0 -2 -7 -4 -15 -4 -8 0 -15 4
-15 10 0 5 7 7 15 4 8 -4 15 -8 15 -10z m-30 -117 c0 -5 -4 -5 -10 -2 -5 3
-10 14 -10 23 0 15 2 15 10 2 5 -8 10 -19 10 -23z m26 -32 c1 -8 -2 -13 -7 -9
-5 3 -9 12 -9 21 0 19 13 9 16 -12z m22 -52 c-10 -2 -26 -2 -35 0 -10 3 -2 5
17 5 19 0 27 -2 18 -5z"/>
<path d="M1867 2890 c-14 -11 -31 -20 -38 -20 -7 0 -9 -3 -6 -7 4 -3 -1 -12
-11 -20 -16 -12 -15 -13 8 -11 48 6 81 -62 45 -92 -17 -14 -20 -40 -5 -40 6 0
21 10 33 23 30 29 71 47 107 47 29 0 45 -12 33 -24 -4 -4 -8 -13 -9 -21 -2
-11 5 -13 29 -7 52 11 237 7 312 -7 92 -17 244 -67 274 -90 23 -18 22 -41 -2
-41 -7 0 -6 4 3 10 8 5 11 10 5 11 -32 2 -60 11 -105 33 -28 13 -48 20 -44 15
3 -5 -2 -9 -10 -9 -9 0 -16 5 -16 11 0 7 -11 9 -32 4 -32 -6 -112 -7 -153 -1
-11 2 -38 5 -60 6 l-40 3 45 7 c36 6 33 7 -15 3 -126 -10 -130 -10 -133 14 -3
20 -6 22 -25 11 -12 -6 -24 -12 -27 -12 -3 -1 -4 -4 -3 -8 2 -5 -2 -8 -7 -8
-18 0 -10 -84 15 -155 42 -120 31 -199 -38 -272 -24 -26 -27 -33 -14 -33 9 0
17 -6 17 -13 0 -8 11 -19 25 -25 14 -6 25 -20 25 -30 0 -10 12 -29 26 -43 24
-22 25 -28 19 -84 -9 -78 -45 -138 -101 -171 -24 -14 -44 -27 -44 -28 0 -1 9
-2 19 -2 11 0 17 4 15 8 -3 4 1 8 9 8 8 0 27 12 42 26 15 14 34 23 42 20 8 -3
11 -1 8 4 -3 6 -2 10 4 10 5 0 11 -6 14 -12 4 -10 7 -10 18 0 7 6 22 12 32 12
12 0 17 5 14 14 -3 8 1 13 10 12 9 0 17 7 18 17 3 18 -10 23 -20 7 -4 -7 -13
-6 -27 1 -11 6 -18 7 -14 1 3 -5 -1 -15 -8 -21 -11 -9 -16 -9 -22 0 -4 8 -3 9
4 5 8 -5 10 2 6 21 -6 32 21 87 68 135 26 27 58 30 58 4 0 -6 19 -31 41 -56
40 -43 36 -28 -5 18 -29 33 -12 27 24 -9 37 -38 59 -116 42 -151 -10 -22 -11
-22 -11 9 -1 17 -4 34 -9 37 -4 2 -6 -13 -4 -34 6 -59 -14 -106 -61 -143 -42
-34 -157 -74 -177 -62 -5 3 -7 0 -4 -8 3 -8 23 -22 45 -32 21 -10 39 -24 39
-31 0 -27 29 -43 61 -34 20 6 39 6 50 0 10 -6 31 -10 46 -10 36 0 69 -22 58
-40 -5 -8 -21 -10 -47 -7 -33 4 -49 -1 -97 -29 -35 -21 -83 -39 -120 -45 -65
-12 -151 -5 -151 12 0 6 -9 7 -21 4 -15 -5 -19 -4 -14 5 6 9 3 9 -12 2 -15 -8
-18 -20 -16 -53 1 -24 -4 -56 -12 -71 -9 -20 -10 -26 -2 -22 7 3 1 -3 -13 -14
l-24 -20 -29 38 -28 39 23 40 c12 22 20 43 16 47 -4 3 -36 9 -72 13 -35 4 -71
13 -80 20 -9 7 -16 10 -16 6 0 -10 -64 39 -115 87 -29 28 -49 38 -72 38 -27 0
-37 7 -60 43 -15 23 -30 44 -33 47 -15 13 -79 160 -86 195 -4 22 -13 54 -21
72 -17 42 -16 170 2 257 15 69 53 147 87 177 16 14 16 18 3 29 -8 7 -13 16
-10 20 3 5 2 15 -1 24 -5 12 -20 3 -70 -42 -36 -32 -62 -63 -59 -70 3 -7 0
-10 -5 -7 -6 3 -10 2 -10 -4 0 -5 6 -12 13 -14 9 -4 8 -6 -2 -6 -10 -1 -11 -4
-2 -15 9 -11 9 -16 0 -22 -8 -5 -9 -3 -4 6 5 8 4 11 -3 6 -13 -8 -6 -33 16
-58 14 -17 3 -26 -12 -10 -4 4 -13 7 -19 7 -11 0 -23 19 -53 88 -12 28 -19 35
-25 25 -7 -10 -9 -9 -9 5 0 9 7 17 15 17 9 0 15 9 15 23 l0 22 -20 -25 c-15
-19 -19 -34 -14 -59 3 -20 1 -37 -6 -41 -30 -18 -15 -90 18 -90 6 0 8 -9 5
-20 -4 -14 0 -20 10 -20 11 0 13 -7 9 -22 -5 -23 -5 -23 16 -4 12 11 25 16 29
13 3 -4 1 -7 -5 -7 -7 0 -12 -6 -12 -14 0 -8 -10 -18 -22 -22 -19 -6 -13 -10
38 -34 34 -15 61 -33 62 -41 8 -88 6 -207 -2 -202 -6 4 -2 -4 9 -17 11 -13 14
-20 8 -16 -9 5 -13 -1 -13 -18 0 -14 4 -26 8 -26 4 0 8 -15 8 -34 0 -19 -4
-33 -8 -30 -4 3 -7 -6 -6 -20 1 -15 5 -26 9 -26 4 0 5 -10 2 -22 -4 -19 -3
-20 6 -8 9 13 11 13 11 -2 0 -9 7 -21 16 -26 9 -5 15 -12 15 -15 -3 -21 1 -27
17 -27 10 0 23 -13 31 -30 10 -24 16 -28 26 -20 10 8 15 8 21 -1 5 -8 3 -10
-7 -4 -8 4 0 -5 16 -20 17 -15 29 -31 28 -36 -2 -5 2 -8 9 -6 7 1 17 -8 23
-20 5 -13 15 -23 22 -23 7 0 13 -4 13 -10 0 -5 5 -10 10 -10 6 0 20 -9 32 -20
24 -22 38 -26 38 -9 0 8 5 7 15 -1 9 -7 13 -21 10 -30 -3 -11 1 -20 11 -24 9
-3 14 -13 10 -21 -3 -8 0 -14 6 -12 6 1 13 -4 16 -12 3 -10 0 -11 -9 -5 -12 7
-12 5 0 -9 7 -9 10 -17 6 -17 -4 0 7 -17 24 -39 17 -21 29 -40 27 -42 -2 -2
12 -15 31 -29 54 -38 85 -69 78 -80 -3 -5 4 -14 15 -20 11 -6 20 -16 20 -22 0
-7 -13 0 -28 15 -16 15 -32 24 -37 20 -5 -5 -4 0 3 9 12 14 10 16 -10 10 -21
-5 -22 -4 -8 14 8 10 10 16 6 12 -10 -8 -66 22 -66 35 0 4 -6 2 -14 -5 -15
-14 -11 -32 5 -23 5 4 9 1 9 -4 0 -15 -15 -14 -29 3 -8 10 -9 16 -1 21 6 3 7
12 3 18 -4 7 -6 21 -5 32 1 11 -14 40 -33 65 -22 26 -34 52 -32 62 3 10 2 16
-3 13 -4 -3 -11 6 -14 19 l-6 24 -37 -19 c-47 -24 -128 -26 -141 -3 -6 10 -14
14 -22 9 -9 -6 -9 -9 1 -16 8 -5 10 -9 4 -9 -5 0 -23 9 -40 20 -16 11 -45 30
-62 41 -18 12 -33 25 -33 29 0 5 -11 21 -24 37 l-25 29 30 -4 c21 -3 28 -9 25
-18 -3 -8 -1 -14 5 -14 6 0 8 -3 5 -8 -2 -4 2 -16 10 -27 8 -11 14 -13 14 -6
0 8 7 11 18 7 10 -4 7 2 -8 14 -14 11 -21 20 -16 20 5 0 -1 11 -14 25 -12 13
-27 22 -31 19 -5 -3 -9 1 -9 10 0 8 -6 17 -12 20 -10 5 -10 7 0 12 6 3 11 15
11 27 -1 17 -2 18 -6 5 -7 -26 -18 -22 -18 6 0 13 3 22 8 19 4 -2 7 0 7 6 0 5
-5 13 -11 16 -7 5 -4 14 8 29 10 11 18 28 17 36 -1 8 -2 28 -3 44 -1 23 -5 27
-21 23 -10 -3 -19 -2 -18 2 2 15 -4 27 -21 50 -18 23 -18 22 -14 -90 4 -123 8
-143 22 -135 5 3 9 -10 8 -29 -1 -19 -2 -35 -4 -35 -8 0 -43 93 -43 117 0 15
-5 35 -10 43 -8 13 -10 13 -10 -2 0 -9 -8 -19 -17 -21 -16 -4 -16 -5 -1 -6 11
-1 18 -14 23 -41 8 -50 41 -119 60 -127 8 -3 12 -9 9 -14 -3 -5 0 -9 5 -9 6 0
11 -9 11 -20 0 -11 6 -19 13 -17 6 1 12 -6 12 -15 0 -9 4 -20 9 -25 5 -4 6 -3
2 5 -13 22 10 12 35 -15 13 -16 23 -36 21 -46 -2 -10 0 -17 5 -16 23 4 32 -2
26 -18 -3 -10 -3 -15 2 -11 12 11 47 -11 38 -25 -4 -7 0 -7 10 2 11 9 17 10
17 2 0 -6 7 -11 16 -11 8 0 12 4 9 10 -3 6 1 7 10 3 12 -4 13 -8 5 -13 -19
-12 5 -22 36 -14 24 6 26 5 19 -17 -5 -18 -4 -20 4 -9 9 12 11 12 17 -3 3 -9
10 -14 15 -11 5 3 8 0 7 -8 -2 -7 3 -12 10 -10 8 1 11 -2 7 -8 -3 -6 -10 -8
-15 -5 -5 3 -14 -3 -20 -12 -10 -17 -10 -16 -8 2 2 16 -3 20 -24 20 -20 -1
-28 4 -28 17 0 10 -7 18 -15 18 -9 0 -18 7 -21 15 -4 8 -10 15 -14 15 -15 0
-18 -39 -4 -64 15 -30 8 -33 -24 -10 -21 14 -33 52 -12 39 6 -3 7 1 4 9 -7 18
-25 21 -41 5 -7 -7 -15 -2 -27 15 -15 24 -45 39 -31 16 8 -14 -45 -4 -80 14
-16 9 -38 16 -48 16 -10 0 -31 15 -47 33 -16 18 -46 42 -67 53 -21 10 -40 20
-42 21 -2 2 2 10 9 19 12 13 11 17 0 24 -12 7 -11 13 5 32 11 13 24 26 29 29
14 11 -1 25 -26 24 -33 -2 -48 -13 -48 -36 0 -10 -4 -19 -10 -19 -5 0 -10 -11
-10 -25 0 -14 -3 -25 -7 -25 -16 1 -41 26 -45 45 -2 12 -10 19 -21 17 -14 -2
-16 2 -12 21 4 15 1 28 -10 37 -14 12 -16 8 -12 -38 5 -63 40 -121 79 -129 17
-3 25 -10 21 -19 -5 -14 -1 -15 42 -18 31 -3 67 -17 60 -24 -14 -14 -187 -10
-217 5 -18 9 -41 13 -60 9 -30 -6 -31 -6 -14 13 19 21 56 34 56 20 0 -5 9 -4
20 3 19 12 19 13 -2 24 -12 7 -27 10 -34 7 -7 -2 -15 0 -19 6 -10 18 -48 14
-41 -4 3 -9 0 -15 -8 -15 -8 0 -16 9 -19 20 -4 14 -14 20 -34 20 -16 0 -34 5
-40 11 -8 8 -13 7 -18 -2 -5 -8 2 -21 18 -35 35 -30 34 -42 -4 -46 -18 -2 -35
-10 -39 -18 -31 -63 -33 -70 -22 -94 8 -19 7 -27 -10 -43 -18 -19 -18 -21 -3
-37 9 -9 26 -16 38 -16 32 0 67 -11 67 -20 0 -5 -8 -6 -19 -3 -21 5 -37 -12
-21 -22 8 -5 7 -11 -1 -21 -13 -16 2 -19 18 -3 13 13 110 14 146 0 36 -14 35
-22 -3 -15 -31 7 -86 -3 -76 -13 3 -3 -4 -11 -17 -18 -12 -6 -21 -17 -19 -24
1 -7 -2 -10 -7 -7 -10 7 -44 -34 -36 -43 3 -2 14 4 25 14 11 10 20 14 20 10 0
-5 11 2 25 15 21 20 29 22 44 13 20 -12 92 -3 114 15 10 9 16 9 25 0 8 -8 23
-8 58 1 53 14 64 9 41 -17 -26 -29 -20 -31 23 -10 25 13 40 27 40 39 0 31 80
106 120 112 19 3 54 11 77 18 35 11 46 11 68 -1 24 -13 35 -40 15 -40 -14 0 9
-51 33 -72 18 -17 18 -18 1 -19 -18 -1 -27 -3 -49 -9 -5 -1 -20 -1 -33 0 -26
2 -55 -17 -46 -31 3 -5 -2 -6 -11 -2 -13 5 -14 7 -3 14 9 6 7 9 -9 9 -12 0
-25 -4 -28 -10 -3 -5 -17 -10 -30 -10 -15 0 -26 -7 -30 -20 -4 -11 -11 -18
-16 -14 -5 3 -25 0 -45 -6 -24 -8 -34 -17 -30 -27 3 -8 2 -12 -2 -9 -12 7 -54
-23 -47 -34 3 -5 -5 -16 -17 -24 -12 -9 -19 -16 -14 -16 5 0 1 -9 -8 -19 -10
-11 -15 -24 -12 -29 3 -6 -1 -13 -10 -16 -13 -5 -14 -9 -4 -22 10 -11 10 -18
2 -26 -7 -7 -12 -30 -12 -52 0 -29 3 -37 9 -27 8 12 11 9 16 -11 5 -19 11 -24
26 -21 10 3 19 0 19 -6 0 -6 9 -11 19 -11 11 0 23 -5 27 -11 3 -6 17 -8 29 -5
13 3 25 1 27 -5 2 -6 17 -13 33 -15 77 -11 265 -2 308 15 26 10 39 -1 16 -14
-6 -4 -8 -12 -6 -19 3 -6 -1 -20 -9 -31 -17 -23 -18 -39 -1 -29 9 6 9 5 0 -7
-15 -18 -10 -166 6 -182 6 -6 11 -19 11 -28 0 -10 3 -19 8 -21 12 -5 59 -72
66 -95 9 -29 32 -30 46 -3 7 14 17 19 29 15 10 -3 24 1 31 10 7 8 23 15 35 15
13 0 26 7 29 16 4 10 13 13 26 9 13 -4 23 0 31 13 7 11 18 18 26 15 7 -3 16 2
19 11 3 9 15 16 26 16 11 0 22 8 25 19 3 11 13 21 24 24 13 3 19 14 19 31 0
16 6 26 15 26 9 0 15 9 15 23 0 13 3 27 7 31 4 4 8 52 9 106 2 75 -2 102 -12
111 -16 13 -19 49 -3 49 6 0 19 -5 30 -10 14 -8 18 -17 13 -37 -7 -25 -7 -25
19 -8 25 16 28 16 57 -1 22 -13 28 -23 24 -37 -5 -16 -1 -18 37 -14 39 4 47 1
76 -28 18 -18 33 -40 33 -49 0 -12 7 -15 24 -12 17 3 32 -4 52 -25 15 -16 34
-29 42 -29 7 0 12 -6 9 -12 -2 -7 -10 -12 -16 -10 -7 1 -9 -3 -6 -9 5 -8 10
-8 18 0 6 6 16 11 22 11 5 0 2 -7 -9 -15 -16 -12 -22 -12 -47 0 -15 8 -34 15
-40 15 -7 0 -20 7 -28 14 -11 10 -21 12 -31 6 -12 -7 -11 -10 5 -16 11 -5 30
-20 43 -35 52 -62 183 -91 231 -52 l22 18 -38 64 c-29 47 -47 67 -75 79 -21 9
-38 20 -38 24 0 4 -22 28 -49 53 -47 45 -52 54 -101 206 -43 130 -50 162 -40
174 9 11 9 15 1 15 -7 0 -10 4 -6 10 3 5 12 7 20 3 9 -3 27 8 45 27 16 18 30
29 30 25 0 -5 12 5 26 21 15 16 23 22 19 14 -6 -10 -5 -12 3 -5 6 6 12 17 14
25 2 8 9 21 16 28 6 7 12 22 12 33 0 11 7 19 18 19 21 1 -46 39 -69 40 -23 0
-172 74 -187 93 -8 9 -9 18 -3 21 5 4 12 2 16 -4 4 -6 11 -8 16 -5 13 9 50 -5
44 -16 -4 -5 3 -9 14 -9 10 0 21 -3 23 -7 9 -21 92 -63 154 -79 69 -18 152
-20 167 -5 5 5 -10 11 -32 15 -39 6 -168 63 -196 86 -8 7 -15 17 -15 22 0 7 5
6 13 -1 8 -6 18 -7 22 -3 5 4 5 1 1 -5 -5 -9 0 -13 12 -13 11 0 25 -6 31 -14
7 -8 21 -12 31 -9 11 3 20 1 20 -5 0 -5 7 -13 16 -16 8 -3 13 -2 9 3 -3 5 -1
21 5 35 5 14 6 25 2 25 -23 -3 -50 14 -45 29 5 11 2 14 -9 10 -9 -4 -20 -2
-24 2 -8 8 -35 16 -66 19 -9 1 -4 28 7 38 4 4 5 2 1 -4 -7 -13 3 -17 38 -13
10 1 23 -4 27 -12 7 -10 9 -10 9 0 0 13 39 16 55 4 6 -4 11 -14 13 -24 2 -12
-3 -15 -18 -11 -11 3 -20 0 -20 -6 0 -6 7 -8 17 -4 11 4 14 3 9 -6 -5 -7 -2
-10 6 -9 7 2 15 12 18 23 4 12 16 21 30 23 14 2 30 8 36 13 6 5 15 4 22 -3 9
-9 16 -7 30 5 14 13 21 14 30 5 9 -9 12 -8 12 3 0 9 6 16 14 16 8 0 12 -6 9
-15 -5 -11 -1 -13 15 -7 12 3 22 2 22 -3 0 -6 13 -6 35 1 20 6 34 16 31 22 -2
6 2 12 10 12 7 0 11 -4 8 -8 -2 -4 4 -10 15 -14 21 -6 25 -44 6 -57 -5 -4 -1
-8 11 -8 12 0 24 -7 27 -15 4 -8 15 -12 27 -10 11 2 18 0 15 -6 -4 -5 -1 -9 5
-9 6 0 8 -4 5 -10 -10 -15 -23 -12 -28 7 -4 14 -5 12 -6 -4 -1 -29 -31 -31
-31 -2 0 13 4 18 12 13 7 -4 8 -3 4 4 -13 22 -26 12 -26 -18 0 -16 -4 -30 -10
-30 -5 0 -7 7 -4 15 4 8 1 15 -6 15 -6 0 -9 -4 -6 -9 3 -5 -1 -14 -9 -21 -10
-9 -15 -9 -15 -1 0 6 -5 11 -11 11 -5 0 -7 -4 -4 -10 3 -5 -1 -10 -10 -10 -9
0 -13 -5 -10 -10 4 -6 11 -7 17 -4 7 5 8 2 4 -5 -6 -9 -13 -8 -27 5 -15 14
-25 15 -51 7 l-33 -10 45 -12 c47 -14 127 -4 123 15 -1 5 12 10 29 11 60 5
143 93 155 166 3 22 0 47 -10 66 -9 17 -11 31 -7 31 10 0 5 20 -12 56 -7 16
-7 33 2 59 7 22 9 54 5 81 -6 42 -5 44 19 44 14 0 26 5 26 11 0 6 7 8 17 5 10
-4 15 -4 11 -1 -3 4 18 30 48 58 30 27 52 53 49 55 -3 3 1 12 8 20 10 13 9 14
-1 8 -8 -5 -28 -9 -47 -10 -32 -1 -33 -1 -20 24 17 31 65 86 74 83 3 -1 5 62
4 140 -1 118 -5 152 -23 199 -20 54 -40 83 -40 58 0 -6 -4 -8 -10 -5 -5 3 -10
1 -10 -6 0 -10 -3 -10 -12 -1 -10 10 -10 15 2 22 12 8 11 10 -5 11 -11 0 -14
3 -7 6 21 8 13 21 -10 15 -14 -3 -19 -2 -14 6 4 7 0 12 -11 13 -12 0 -13 2 -5
6 9 3 4 10 -15 20 -15 8 -32 16 -38 17 -28 5 -63 40 -74 74 -18 53 -108 148
-148 157 -22 4 -33 3 -33 -5 0 -6 6 -8 13 -4 6 4 8 3 4 -1 -14 -16 -57 -16
-63 0 -3 8 -10 13 -14 10 -5 -3 -12 0 -16 6 -4 7 -3 9 4 5 6 -3 13 -3 16 2 2
4 -9 9 -25 10 -21 2 -28 -1 -23 -9 3 -6 -6 -3 -21 7 -23 15 -28 15 -36 3 -6
-10 -9 -10 -9 -1 0 6 -7 12 -15 12 -9 0 -15 9 -15 21 0 19 -1 19 -16 4 -15
-14 -18 -14 -33 -1 -10 9 -27 14 -39 11 -12 -2 -22 1 -22 6 0 6 -21 10 -47 9
-27 0 -55 0 -63 0 -51 1 -158 -8 -175 -15 -18 -8 -19 -7 -5 11 11 15 11 16 0
7 -23 -21 -34 -15 -55 25 -25 48 -43 65 -93 91 -40 20 -40 20 -65 1z m388
-253 c34 1 37 -1 22 -11 -41 -25 -52 -35 -45 -41 3 -4 16 -2 27 5 29 15 27 7
-15 -56 -20 -30 -43 -54 -52 -54 -15 0 -15 -2 -2 -10 11 -7 8 -8 -13 -6 -15 1
-33 9 -40 16 -10 12 -9 12 6 1 14 -11 17 -11 17 3 0 9 8 16 20 16 11 0 20 5
20 10 0 6 -6 10 -14 10 -8 0 -22 3 -32 7 -10 4 -15 2 -11 -3 4 -6 -6 -9 -24
-6 -30 4 -37 19 -19 40 7 9 7 9 -2 2 -22 -18 -31 -10 -10 9 12 10 22 25 22 34
0 9 8 18 18 20 9 3 -3 6 -28 7 -39 2 -42 3 -20 11 14 4 50 5 80 2 30 -4 73 -6
95 -6z m150 -45 c-3 -3 -11 0 -18 7 -9 10 -8 11 6 5 10 -3 15 -9 12 -12z m315
-65 c-14 -8 -32 -11 -40 -8 -11 4 -8 7 10 12 42 12 56 9 30 -4z m57 7 c-3 -3
-12 -4 -19 -1 -8 3 -5 6 6 6 11 1 17 -2 13 -5z m52 -5 c20 -7 31 -17 29 -27
-3 -17 -23 -18 -23 -1 0 6 -11 17 -25 24 -31 17 -24 19 19 4z m-531 -51 c-2
-7 3 -12 10 -10 8 1 11 -2 7 -8 -4 -6 -13 -9 -20 -6 -8 3 -16 0 -19 -7 -3 -9
-7 -8 -15 3 -8 11 -7 16 4 18 8 2 15 8 15 13 0 5 5 9 10 9 6 0 9 -6 8 -12z
m-964 -33 c-4 -8 -12 -15 -20 -15 -8 0 -11 6 -8 15 4 8 12 15 20 15 8 0 11 -6
8 -15z m960 -19 c-10 -8 -16 -18 -11 -22 4 -4 7 -2 7 4 0 7 5 12 10 12 6 0 10
-7 10 -15 0 -8 -7 -15 -16 -15 -9 0 -12 -5 -8 -12 4 -7 -3 -3 -15 9 -26 27
-27 40 -3 46 37 10 46 7 26 -7z m622 -4 c20 -16 64 -75 64 -85 0 -3 -9 -3 -20
0 -11 3 -17 9 -14 14 3 5 -2 9 -10 9 -9 0 -16 6 -16 14 0 8 -7 17 -16 20 -8 3
-12 10 -9 16 3 5 1 10 -4 10 -6 0 -11 5 -11 10 0 15 12 12 36 -8z m-352 -28
c9 -8 16 -17 16 -19 0 -8 -51 -55 -60 -55 -12 0 -12 3 0 36 7 19 7 30 -1 40
-17 20 25 19 45 -2z m101 -24 c-9 -16 -17 -30 -19 -30 -3 0 1 14 7 30 6 17 15
30 19 30 5 0 2 -13 -7 -30z m225 5 c0 -8 -2 -15 -4 -15 -2 0 -6 7 -10 15 -3 8
-1 15 4 15 6 0 10 -7 10 -15z m-31 -29 c34 -15 84 -111 72 -135 -14 -25 -80
-74 -105 -77 -11 -1 -32 -6 -46 -12 -14 -5 -39 -9 -57 -8 -17 0 -29 -2 -27 -6
3 -4 -2 -5 -10 -2 -31 12 -12 30 26 26 3 -1 12 5 18 13 7 8 17 15 22 15 16 0
78 46 71 53 -3 4 1 7 9 7 21 0 30 27 18 50 -7 13 -6 20 3 23 7 4 6 6 -4 6 -9
1 -20 8 -23 17 -3 8 -10 12 -16 9 -5 -3 -10 1 -10 10 0 10 -5 13 -12 9 -7 -5
-8 -3 -3 6 5 8 3 11 -6 8 -8 -3 -13 -11 -11 -18 2 -11 0 -11 -11 -2 -8 7 -21
10 -30 6 -8 -3 -18 -1 -21 4 -3 5 8 9 25 10 17 0 33 3 36 6 7 7 62 -4 92 -18z
m-623 -31 c-8 -8 -20 -15 -26 -15 -16 0 12 29 28 30 10 0 10 -4 -2 -15z m774
-37 c20 -46 16 -60 -24 -79 -19 -9 -19 -9 -4 4 14 11 15 16 5 27 -10 12 -9 12
6 1 9 -7 17 -10 17 -6 0 5 -8 17 -17 28 -11 13 -13 17 -4 12 11 -6 10 -2 -2
16 -20 27 -21 39 -7 39 6 0 19 -19 30 -42z m70 -7 c0 -11 3 -27 7 -37 4 -12 2
-15 -8 -12 -15 5 -22 68 -7 68 4 0 8 -9 8 -19z m-1930 -61 c0 -5 -5 -10 -11
-10 -5 0 -7 5 -4 10 3 6 8 10 11 10 2 0 4 -4 4 -10z m1948 -25 c-3 -3 -9 2
-12 12 -6 14 -5 15 5 6 7 -7 10 -15 7 -18z m-101 -51 c7 -19 -22 -45 -42 -38
-7 3 -16 1 -20 -5 -4 -7 -21 -9 -44 -5 -26 4 -42 2 -52 -9 -9 -8 -24 -17 -35
-20 -10 -3 -2 -5 20 -4 31 2 40 -2 47 -20 6 -17 1 -31 -22 -63 l-31 -42 34 7
c53 11 84 34 86 63 1 14 -4 29 -10 34 -10 5 -9 11 5 25 15 16 19 16 28 3 5 -8
7 -28 4 -45 -4 -23 -3 -27 7 -17 17 17 41 15 35 -2 -4 -9 2 -17 14 -21 10 -4
19 -11 19 -17 0 -5 -6 -8 -14 -5 -15 6 -76 -43 -76 -61 0 -6 -5 -14 -12 -18
-7 -5 -8 -3 -3 5 5 9 1 9 -14 -1 -12 -7 -24 -20 -27 -30 -8 -27 -96 -99 -151
-125 -52 -24 -130 -36 -139 -21 -3 4 6 13 20 20 14 6 26 15 26 19 0 12 -23 24
-42 21 -14 -3 -17 3 -16 22 2 27 23 42 34 24 5 -7 9 -7 13 1 4 6 19 12 33 13
17 1 24 7 21 16 -3 8 -14 11 -24 9 -12 -3 -25 3 -34 16 -8 12 -15 18 -15 13 0
-5 -8 -2 -17 5 -9 8 -14 9 -10 3 4 -7 0 -15 -9 -18 -8 -3 -13 -2 -9 3 3 5 -1
11 -7 14 -10 3 -9 9 4 22 16 17 48 22 186 28 17 1 32 5 32 10 0 16 -6 22 -19
19 -7 -2 -11 0 -8 5 8 12 -46 10 -55 -2 -5 -6 -8 -6 -8 2 0 11 -30 10 -49 -2
-5 -3 -13 -1 -16 5 -4 6 -1 9 7 8 7 -2 12 2 11 9 -2 11 31 31 77 46 8 3 3 6
-12 6 -16 1 -28 -4 -28 -11 0 -6 -3 -8 -6 -5 -4 3 -15 2 -25 -4 -11 -5 -19 -6
-19 -1 0 5 -13 12 -30 16 -18 3 -30 12 -30 21 0 8 -4 15 -9 15 -17 0 -21 -18
-12 -43 7 -19 6 -28 -5 -37 -7 -7 -14 -24 -15 -39 0 -23 -1 -24 -9 -6 -13 33
-3 108 16 122 10 7 39 13 66 13 39 0 48 -3 49 -17 0 -15 2 -14 9 3 9 23 29 28
160 40 41 3 82 12 90 19 33 27 68 31 77 9z m-814 -21 c-7 -2 -21 -2 -30 0 -10
3 -4 5 12 5 17 0 24 -2 18 -5z m347 -212 c0 -30 -12 -32 -27 -5 -18 37 -16 47
7 34 11 -6 20 -19 20 -29z m47 -113 c-3 -8 -6 -5 -6 6 -1 11 2 17 5 13 3 -3 4
-12 1 -19z m-154 -75 c-7 -2 -21 -2 -30 0 -10 3 -4 5 12 5 17 0 24 -2 18 -5z
m282 -53 c46 -17 85 -21 83 -8 -2 6 6 13 17 15 15 3 16 2 7 -5 -8 -5 -14 -13
-15 -18 -2 -9 -85 -9 -124 1 -25 6 -31 25 -9 25 8 0 26 -4 41 -10z m-289 -19
c-3 -4 8 -5 25 -3 18 3 29 0 29 -8 0 -7 6 -5 16 5 15 15 18 15 35 -1 10 -9 21
-14 26 -11 4 3 32 8 62 11 51 5 55 4 88 -29 37 -37 39 -61 5 -59 -12 1 -22 -1
-22 -5 0 -4 -21 -6 -47 -6 -27 1 -55 -2 -64 -6 -9 -5 -21 -3 -26 2 -8 8 -13 7
-18 -2 -6 -8 -4 -10 6 -4 8 5 10 4 6 0 -10 -11 -37 -15 -37 -6 0 4 6 13 13 20
10 10 8 11 -7 5 -15 -6 -18 -4 -13 9 3 9 -1 21 -11 29 -15 11 -16 11 -4 -3 10
-14 9 -17 -8 -22 -16 -4 -20 -2 -15 12 7 24 -14 40 -47 36 -26 -3 -27 -2 -13
19 8 13 12 26 8 31 -5 4 -2 5 5 1 7 -4 10 -11 8 -15z m-1186 -11 c0 -5 -2 -10
-4 -10 -3 0 -8 5 -11 10 -3 6 -1 10 4 10 6 0 11 -4 11 -10z m1590 -20 c0 -12
-42 -23 -67 -17 -15 3 -14 5 7 15 32 14 60 15 60 2z m-374 -22 c4 -7 3 -8 -4
-4 -7 4 -12 3 -12 -3 0 -6 -7 -8 -16 -4 -13 5 -13 7 -2 14 18 12 26 11 34 -3z
m384 -73 c-7 -8 -18 -15 -25 -15 -7 0 -15 -6 -18 -14 -6 -14 -67 -40 -67 -28
0 4 15 14 33 23 20 10 31 23 29 33 -2 12 5 16 29 16 27 0 30 -2 19 -15z m-325
-48 c4 4 5 3 1 -4 -10 -18 -32 -6 -33 20 l-2 22 13 -23 c6 -12 16 -19 21 -15z
m12 27 c-3 -3 -12 -4 -19 -1 -8 3 -5 6 6 6 11 1 17 -2 13 -5z m186 -37 c4 3 7
2 7 -4 0 -15 -43 -30 -120 -44 -61 -10 -296 -6 -308 6 -3 3 3 6 14 6 10 1 24
2 29 4 6 1 16 3 23 3 7 1 10 7 6 14 -4 7 -3 8 4 4 7 -4 12 -2 12 5 0 8 4 8 13
2 22 -18 57 -22 57 -8 0 8 4 16 9 19 5 4 7 -4 3 -16 -5 -20 -3 -21 10 -10 11
9 18 10 23 2 3 -6 12 -7 18 -3 7 4 19 8 27 8 8 0 14 5 13 11 -1 6 10 10 25 8
15 -1 27 -3 27 -4 0 -1 19 -3 43 -4 35 -2 42 1 37 14 -4 11 -2 11 8 -2 8 -10
17 -15 20 -11z m-436 -33 c-3 -3 -12 -4 -19 -1 -8 3 -5 6 6 6 11 1 17 -2 13
-5z m-90 -11 c-4 -3 0 -17 8 -30 22 -34 10 -28 -15 7 -19 27 -20 30 -4 30 10
0 14 -3 11 -7z m56 -39 c-6 -17 -23 -9 -23 11 0 8 6 12 14 9 8 -3 12 -12 9
-20z m577 -59 c7 -9 8 -15 2 -15 -5 0 -12 7 -16 15 -3 8 -4 15 -2 15 2 0 9 -7
16 -15z m-550 -31 c0 -2 -9 0 -20 6 -11 6 -20 13 -20 16 0 2 9 0 20 -6 11 -6
20 -13 20 -16z m-447 -79 c14 -6 15 -10 5 -24 -10 -13 -9 -13 8 1 16 14 23 15
32 6 9 -9 12 -9 12 3 0 11 2 11 9 1 4 -8 12 -13 17 -13 22 2 44 -11 37 -22 -4
-7 -8 -19 -10 -27 -1 -11 2 -10 12 4 10 13 20 16 32 11 10 -5 21 -8 25 -7 3 1
9 -5 12 -14 4 -10 2 -13 -6 -8 -6 4 -17 -1 -23 -10 -12 -15 -13 -15 -19 1 -6
15 -8 15 -16 3 -11 -17 5 -30 37 -30 12 0 25 -4 28 -10 3 -6 -1 -7 -10 -4 -11
4 -14 2 -9 -9 3 -8 1 -18 -5 -22 -7 -3 -11 2 -11 14 0 12 -5 21 -11 21 -5 0
-7 -5 -3 -11 4 -7 -1 -7 -16 1 -12 7 -33 10 -46 7 -14 -2 -23 -2 -20 1 9 8
-24 33 -35 27 -6 -4 -13 2 -16 14 -3 12 -12 21 -19 21 -8 0 -14 5 -14 11 0 5
-4 8 -9 5 -5 -3 -15 2 -22 11 -12 15 -12 16 3 10 10 -3 20 -1 24 5 4 6 3 8 -4
4 -6 -3 -13 -2 -17 4 -4 6 -10 8 -15 5 -4 -3 -6 3 -3 13 4 18 32 21 66 7z
m-226 -31 c-3 -3 -12 -4 -19 -1 -8 3 -5 6 6 6 11 1 17 -2 13 -5z m-712 -46
c-4 -10 7 -12 42 -10 27 2 66 -1 88 -6 l40 -9 -29 -12 c-22 -9 -120 -10 -164
-2 -2 1 0 6 3 11 7 11 -8 14 -19 3 -4 -4 3 -16 16 -26 l23 -18 -23 11 c-12 6
-28 8 -34 4 -6 -4 -8 -3 -4 4 4 7 -3 10 -21 8 -16 -1 -27 -8 -25 -14 3 -17 -3
-15 -19 5 -10 11 -10 14 -1 9 6 -4 12 -3 12 3 0 5 13 9 29 9 16 -1 42 9 58 20
33 25 34 25 28 10z m1138 -35 c-7 -2 -19 -2 -25 0 -7 3 -2 5 12 5 14 0 19 -2
13 -5z m-129 -114 c-8 16 9 8 39 -17 9 -8 17 -12 17 -9 0 4 9 -1 20 -10 10 -9
29 -18 42 -21 13 -2 28 -5 35 -6 19 -3 28 -16 12 -16 -11 0 -13 -11 -11 -45 2
-25 8 -45 13 -45 5 0 9 -5 9 -12 0 -9 -3 -9 -12 0 -15 15 -48 16 -48 2 0 -6
13 -13 29 -16 45 -9 68 -84 34 -109 -13 -10 -28 -7 -82 17 -75 34 -111 63
-111 90 0 12 -7 18 -21 18 -18 0 -20 4 -13 23 11 32 7 122 -7 148 -10 19 -9
21 5 16 8 -3 18 -2 22 4 3 6 12 3 21 -8 8 -10 11 -12 7 -4z m-704 -59 c0 -5
-2 -10 -4 -10 -3 0 -8 5 -11 10 -3 6 -1 10 4 10 6 0 11 -4 11 -10z m930 -2 c0
-4 -9 -8 -21 -8 -11 0 -18 4 -15 8 3 5 12 9 21 9 8 0 15 -4 15 -9z m-7 -259
c4 -16 3 -18 -9 -8 -16 13 -19 29 -5 29 5 0 11 -9 14 -21z"/>
<path d="M2185 2561 c-10 -17 12 -21 25 -6 10 12 10 15 -3 15 -9 0 -18 -4 -22
-9z"/>
<path d="M2758 2043 c7 -3 16 -2 19 1 4 3 -2 6 -13 5 -11 0 -14 -3 -6 -6z"/>
<path d="M2909 1923 c-8 -9 -32 -29 -53 -45 -40 -29 -37 -35 9 -18 14 5 24 14
21 19 -3 5 1 11 8 14 8 3 20 15 26 26 13 25 8 27 -11 4z"/>
<path d="M2790 1830 c0 -6 -4 -8 -10 -5 -5 3 -10 1 -10 -4 0 -13 10 -14 29 -2
9 6 10 11 2 15 -6 4 -11 2 -11 -4z"/>
<path d="M2685 1789 c-4 -6 -5 -12 -2 -15 2 -3 7 2 10 11 7 17 1 20 -8 4z"/>
<path d="M1960 1119 c0 -5 5 -7 10 -4 6 3 10 8 10 11 0 2 -4 4 -10 4 -5 0 -10
-5 -10 -11z"/>
<path d="M1891 957 c2 -1 13 -9 24 -17 19 -14 19 -14 6 3 -7 9 -18 17 -24 17
-6 0 -8 -1 -6 -3z"/>
<path d="M1960 916 c14 -8 31 -15 39 -16 16 0 7 13 -12 16 -7 1 -21 5 -32 9
-14 4 -12 2 5 -9z"/>
<path d="M1770 2870 c-24 -15 -7 -18 20 -3 14 7 18 13 10 13 -8 0 -22 -4 -30
-10z"/>
<path d="M2426 2813 c-3 -4 -6 -11 -6 -16 0 -6 3 -8 6 -4 4 3 19 0 35 -9 16
-8 29 -13 29 -11 0 9 -58 45 -64 40z"/>
<path d="M2520 2775 c0 -2 10 -10 23 -16 20 -11 21 -11 8 4 -13 16 -31 23 -31
12z"/>
<path d="M2612 2751 c-11 -6 -10 -10 4 -15 20 -8 32 0 18 14 -5 5 -15 5 -22 1z"/>
<path d="M1750 2741 c0 -4 -8 -8 -17 -7 -27 1 -94 -25 -88 -34 3 -4 -3 -6 -13
-3 -10 2 -29 -6 -45 -21 -15 -14 -27 -23 -27 -20 0 8 -42 -17 -82 -48 -45 -35
-47 -45 -11 -59 24 -9 31 -5 82 44 68 66 102 89 164 112 26 10 47 24 47 31 0
8 -2 14 -5 14 -3 0 -5 -4 -5 -9z"/>
<path d="M1506 2728 c3 -4 9 -8 15 -8 5 0 9 4 9 8 0 5 -7 9 -15 9 -8 0 -12 -4
-9 -9z"/>
<path d="M1930 2710 c0 -12 -69 -42 -80 -35 -9 6 -45 -33 -37 -41 3 -3 16 1
29 9 12 8 46 22 74 31 28 9 60 23 70 31 18 13 16 14 -18 15 -21 0 -38 -4 -38
-10z"/>
<path d="M1476 2695 c-11 -8 -16 -15 -10 -15 5 0 18 7 28 15 11 8 16 15 10 15
-5 0 -18 -7 -28 -15z"/>
<path d="M2647 2699 c7 -7 15 -10 18 -7 3 3 -2 9 -12 12 -14 6 -15 5 -6 -5z"/>
<path d="M2324 2678 c-4 -6 -3 -8 4 -5 14 9 43 -3 36 -14 -6 -10 44 -4 54 6 8
8 0 12 -45 19 -27 4 -44 2 -49 -6z"/>
<path d="M1790 2589 c-14 -17 -31 -37 -37 -44 -10 -11 -10 -14 0 -18 9 -4 9
-6 0 -6 -7 -1 -13 -12 -13 -25 0 -13 -7 -43 -16 -67 -9 -24 -18 -57 -21 -74
-6 -40 -37 -109 -74 -167 -17 -26 -28 -52 -24 -58 8 -13 -8 -13 -22 1 -7 7
-10 -8 -9 -50 1 -67 16 -86 16 -21 0 58 25 53 36 -7 3 -15 8 -30 11 -33 3 -3
3 5 0 18 -3 15 -1 22 9 22 8 0 14 -4 14 -10 0 -5 16 -26 36 -45 20 -20 33 -39
29 -43 -4 -4 -14 3 -22 16 -25 36 -33 25 -12 -18 10 -21 19 -46 19 -54 0 -8
10 -18 21 -21 17 -6 19 -9 8 -17 -11 -7 -11 -8 3 -6 9 2 17 -1 16 -7 0 -5 -4
-9 -9 -7 -5 1 -9 0 -9 -3 0 -12 40 -84 50 -90 5 -3 10 -15 10 -26 0 -10 5 -27
10 -37 6 -9 19 -38 30 -64 10 -27 24 -48 30 -48 5 0 10 -9 10 -19 0 -11 5 -23
10 -26 6 -3 10 -1 10 4 0 6 7 11 15 11 8 0 15 -4 15 -10 0 -13 37 -13 45 0 3
6 17 10 31 10 13 0 24 4 24 8 0 13 -36 8 -57 -9 -16 -12 -17 -12 -6 1 11 14
13 21 13 36 0 4 7 1 15 -6 13 -11 15 -10 12 7 -3 23 -30 53 -46 53 -6 0 -10 4
-8 9 1 4 -23 30 -53 57 -30 27 -63 60 -74 72 -15 19 -21 21 -28 10 -6 -9 -7
-5 -3 11 6 21 4 23 -14 18 -22 -5 -30 16 -11 28 6 4 -2 22 -20 45 -18 23 -28
44 -24 54 5 13 9 14 20 5 8 -6 -5 27 -28 74 -24 48 -47 83 -53 80 -5 -4 -7 -3
-3 2 4 4 3 16 -3 27 -5 10 -6 24 -2 31 15 22 34 82 37 116 3 19 9 37 14 40 6
4 13 18 15 31 2 14 9 39 16 55 7 17 15 40 17 52 2 12 8 33 14 47 5 13 6 27 3
30 -4 3 -1 6 5 6 7 0 11 3 10 8 -1 4 6 22 15 40 22 40 19 41 -13 1z"/>
<path d="M1137 2569 c-9 -5 -22 -7 -27 -4 -6 3 -10 1 -10 -5 0 -8 -9 -10 -25
-6 -14 4 -25 2 -25 -4 0 -5 -7 -10 -15 -10 -9 0 -27 -11 -41 -25 -14 -14 -19
-25 -12 -25 21 0 37 -44 21 -58 -16 -16 -17 -32 -2 -32 8 0 8 -4 2 -12 -22
-29 -31 -73 -17 -86 12 -11 14 -9 14 10 1 32 35 129 43 121 4 -3 7 8 7 25 0
17 5 34 10 37 6 3 10 15 10 26 0 10 7 20 15 20 8 1 20 3 25 4 6 1 19 3 29 4
10 0 21 8 25 16 6 17 -2 19 -27 4z"/>
<path d="M1230 2500 c-6 -11 -15 -20 -21 -20 -6 0 -7 4 -4 10 3 5 -8 2 -24 -8
-27 -15 -31 -22 -29 -59 1 -29 6 -43 15 -43 7 0 13 8 13 18 0 19 53 100 74
114 8 5 7 8 -1 8 -7 0 -17 -9 -23 -20z"/>
<path d="M1541 2479 c-1 -4 6 -26 14 -49 8 -23 12 -46 9 -51 -3 -5 -1 -9 4 -9
12 0 10 -43 -3 -52 -6 -5 -6 -8 1 -8 7 0 15 -16 19 -36 10 -58 14 -35 6 46 -5
41 -17 95 -29 120 -11 25 -21 42 -21 39z"/>
<path d="M1666 2419 c-8 -43 -8 -69 2 -69 5 0 9 23 11 50 2 57 -3 65 -13 19z"/>
<path d="M1837 2372 c19 -32 39 -44 37 -22 -1 6 -2 17 -2 25 -1 8 -7 15 -13
15 -5 0 -7 -6 -3 -12 4 -7 -3 -4 -16 7 l-24 20 21 -33z"/>
<path d="M1175 2313 c15 -36 25 -52 25 -41 0 11 -30 78 -35 78 -3 0 2 -17 10
-37z"/>
<path d="M1662 2315 c0 -16 2 -22 5 -12 2 9 2 23 0 30 -3 6 -5 -1 -5 -18z"/>
<path d="M1880 2311 c0 -6 4 -13 10 -16 6 -3 7 1 4 9 -7 18 -14 21 -14 7z"/>
<path d="M1925 2280 c10 -11 20 -20 23 -20 3 0 -3 9 -13 20 -10 11 -20 20 -23
20 -3 0 3 -9 13 -20z"/>
<path d="M1542 2254 c-1 -13 0 -24 2 -24 7 0 14 40 7 44 -4 3 -8 -6 -9 -20z"/>
<path d="M1587 2213 c-2 -5 -7 -21 -11 -36 -6 -24 -4 -26 7 -16 7 7 13 23 13
36 0 24 -2 28 -9 16z"/>
<path d="M816 2135 c-8 -8 -24 -15 -36 -15 -12 0 -18 -4 -15 -10 3 -5 -3 -10
-14 -10 -11 0 -26 -7 -35 -15 -8 -8 -22 -15 -31 -15 -11 0 -15 -5 -11 -15 3
-9 0 -15 -10 -15 -8 0 -17 -7 -20 -15 -4 -8 -12 -15 -20 -15 -12 0 -19 -13
-11 -24 1 -2 -7 -14 -18 -26 -16 -18 -17 -23 -5 -30 8 -6 20 -10 27 -10 7 0
17 -9 23 -19 5 -11 19 -23 31 -26 12 -4 30 -16 40 -26 10 -10 27 -19 38 -19
10 0 24 -7 31 -15 7 -8 18 -15 25 -15 8 0 15 -5 17 -10 2 -6 38 -10 83 -10
124 0 116 -4 97 44 -11 27 -17 69 -17 124 0 70 -2 83 -17 88 -10 3 -15 10 -12
16 4 7 2 8 -4 4 -6 -4 -23 -4 -37 0 -22 5 -25 11 -25 50 0 42 -1 44 -29 44
-16 0 -36 -7 -45 -15z m-33 -200 c-3 -9 -8 -14 -10 -11 -3 3 -2 9 2 15 9 16
15 13 8 -4z"/>
<path d="M1182 2068 c3 -7 15 -14 29 -15 14 -1 17 0 7 3 -10 3 -18 10 -18 15
0 5 -5 9 -11 9 -6 0 -9 -6 -7 -12z"/>
<path d="M1581 1994 c0 -11 3 -14 6 -6 3 7 2 16 -1 19 -3 4 -6 -2 -5 -13z"/>
<path d="M1180 1901 c0 -5 5 -13 10 -16 6 -3 10 -2 10 4 0 5 -4 13 -10 16 -5
3 -10 2 -10 -4z"/>
<path d="M1581 1891 c-8 -5 -14 -22 -15 -39 0 -17 -4 -28 -7 -27 -3 2 -17 -20
-32 -50 -14 -30 -23 -57 -18 -59 5 -3 11 3 14 14 3 11 9 20 14 19 36 -6 43 2
43 50 0 27 4 61 10 75 11 29 11 29 -9 17z"/>
<path d="M2261 1893 c-1 -7 -17 -31 -37 -53 -20 -22 -32 -40 -26 -40 5 0 15 7
22 15 7 8 19 15 26 15 8 0 13 3 12 8 0 4 2 15 6 24 4 10 6 23 3 30 -4 10 -6
10 -6 1z"/>
<path d="M1177 1857 c-11 -29 -9 -43 4 -30 6 6 9 19 7 29 -3 18 -4 18 -11 1z"/>
<path d="M2063 1753 c-7 -2 -13 -12 -13 -20 0 -13 3 -13 15 -3 12 10 15 10 15
-1 0 -12 2 -12 9 -1 4 8 11 13 15 13 22 -3 28 2 11 9 -23 10 -35 11 -52 3z"/>
<path d="M1560 1730 c-9 -6 -10 -10 -3 -10 6 0 15 5 18 10 8 12 4 12 -15 0z"/>
<path d="M1084 1721 c3 -5 15 -7 26 -4 28 7 25 13 -6 13 -14 0 -23 -4 -20 -9z"/>
<path d="M1765 1660 c-18 -8 -18 -9 -2 -9 10 -1 15 -5 12 -11 -3 -5 0 -10 8
-10 10 0 13 7 10 20 -3 11 -6 20 -7 19 0 0 -10 -4 -21 -9z"/>
<path d="M2126 1584 c-9 -24 -4 -24 18 -3 16 16 17 19 4 19 -9 0 -19 -7 -22
-16z"/>
<path d="M2055 1570 c3 -5 11 -10 16 -10 6 0 7 5 4 10 -3 6 -11 10 -16 10 -6
0 -7 -4 -4 -10z"/>
<path d="M1647 1563 c-13 -12 -7 -23 11 -22 10 0 12 3 4 6 -6 2 -10 9 -6 14 6
10 0 12 -9 2z"/>
<path d="M2128 1543 c7 -3 16 -2 19 1 4 3 -2 6 -13 5 -11 0 -14 -3 -6 -6z"/>
<path d="M1827 1394 c-10 -13 -13 -24 -8 -24 10 0 36 39 29 45 -2 2 -11 -8
-21 -21z"/>
<path d="M1310 1364 c0 -1 16 -11 35 -23 36 -21 45 -20 21 4 -7 8 -16 11 -20
8 -3 -4 -6 -2 -6 4 0 5 -7 10 -15 10 -8 0 -15 -1 -15 -3z"/>
<path d="M2380 1336 c0 -9 30 -14 35 -6 4 6 -3 10 -14 10 -12 0 -21 -2 -21 -4z"/>
<path d="M1220 1236 c0 -2 7 -9 15 -16 9 -7 15 -8 15 -2 0 5 -7 12 -15 16 -8
3 -15 4 -15 2z"/>
<path d="M2435 1220 c3 -5 8 -10 11 -10 2 0 4 5 4 10 0 6 -5 10 -11 10 -5 0
-7 -4 -4 -10z"/>
<path d="M2590 1198 c-36 -16 -50 -18 -50 -7 0 5 -7 9 -16 9 -9 0 -14 -6 -11
-12 3 -12 16 -13 76 -9 10 0 21 8 25 16 3 8 4 15 3 14 -1 0 -13 -5 -27 -11z"/>
<path d="M2368 1123 c7 -3 16 -2 19 1 4 3 -2 6 -13 5 -11 0 -14 -3 -6 -6z"/>
</g>
</svg>
